<svg id="visual" viewBox="0 0 960 200" width="960" height="200" xmlns="http://www.w3.org/2000/svg" xmlns:xlink="http://www.w3.org/1999/xlink" version="1.1"><path d="M0 96L22.8 90C45.7 84 91.3 72 137 66.2C182.7 60.3 228.3 60.7 274 66C319.7 71.3 365.3 81.7 411.2 85.8C457 90 503 88 548.8 84C594.7 80 640.3 74 686 70.2C731.7 66.3 777.3 64.7 823 59.7C868.7 54.7 914.3 46.3 937.2 42.2L960 38L960 201L937.2 201C914.3 201 868.7 201 823 201C777.3 201 731.7 201 686 201C640.3 201 594.7 201 548.8 201C503 201 457 201 411.2 201C365.3 201 319.7 201 274 201C228.3 201 182.7 201 137 201C91.3 201 45.7 201 22.8 201L0 201Z" fill="#c62368"></path><path d="M0 76L22.8 75.3C45.7 74.7 91.3 73.3 137 74.8C182.7 76.3 228.3 80.7 274 87.7C319.7 94.7 365.3 104.3 411.2 102.3C457 100.3 503 86.7 548.8 88.3C594.7 90 640.3 107 686 114.5C731.7 122 777.3 120 823 117.8C868.7 115.7 914.3 113.3 937.2 112.2L960 111L960 201L937.2 201C914.3 201 868.7 201 823 201C777.3 201 731.7 201 686 201C640.3 201 594.7 201 548.8 201C503 201 457 201 411.2 201C365.3 201 319.7 201 274 201C228.3 201 182.7 201 137 201C91.3 201 45.7 201 22.8 201L0 201Z" fill="#da3f67"></path><path d="M0 131L22.8 127.8C45.7 124.7 91.3 118.3 137 114C182.7 109.7 228.3 107.3 274 109.8C319.7 112.3 365.3 119.7 411.2 124.7C457 129.7 503 132.3 548.8 134.8C594.7 137.3 640.3 139.7 686 137C731.7 134.3 777.3 126.7 823 126.2C868.7 125.7 914.3 132.3 937.2 135.7L960 139L960 201L937.2 201C914.3 201 868.7 201 823 201C777.3 201 731.7 201 686 201C640.3 201 594.7 201 548.8 201C503 201 457 201 411.2 201C365.3 201 319.7 201 274 201C228.3 201 182.7 201 137 201C91.3 201 45.7 201 22.8 201L0 201Z" fill="#eb5967"></path><path d="M0 145L22.8 148.7C45.7 152.3 91.3 159.7 137 159.5C182.7 159.3 228.3 151.7 274 147C319.7 142.3 365.3 140.7 411.2 146C457 151.3 503 163.7 548.8 166.2C594.7 168.7 640.3 161.3 686 160.7C731.7 160 777.3 166 823 164.2C868.7 162.3 914.3 152.7 937.2 147.8L960 143L960 201L937.2 201C914.3 201 868.7 201 823 201C777.3 201 731.7 201 686 201C640.3 201 594.7 201 548.8 201C503 201 457 201 411.2 201C365.3 201 319.7 201 274 201C228.3 201 182.7 201 137 201C91.3 201 45.7 201 22.8 201L0 201Z" fill="#fa7268"></path></svg>